<svg width="196" height="42" viewBox="0 0 196 42" fill="none" xmlns="http://www.w3.org/2000/svg">
<g clip-path="url(#clip0_42_270)">
<path d="M116.281 42.0021C118.244 42.0021 119.835 40.5064 119.835 38.6612C119.835 36.8161 118.244 35.3203 116.281 35.3203C114.318 35.3203 112.727 36.8161 112.727 38.6612C112.727 40.5064 114.318 42.0021 116.281 42.0021Z" fill="white"/>
<path d="M122.883 24.8203H139.132V28.6385H133.038V42.0021H128.976V28.6385H122.883V24.8203Z" fill="white"/>
<path d="M154.362 24.8203V28.6385H145.222V31.5021H149.962L151.316 35.3203H145.222V38.1839H154.362V42.0021H141.16V24.8203H154.362Z" fill="white"/>
<path d="M174.672 24.8203H180.765L185.335 37.7067L189.905 24.8203H195.998V42.0021H191.936V30.5476L187.874 42.0021H182.796L178.734 30.5476V42.0021H174.672V24.8203Z" fill="white"/>
<path d="M161.472 24.8203H167.565L173.659 42.0021H169.597L166.888 34.3658L164.519 27.6839L162.15 34.3658H166.888L165.534 38.1839H160.795L159.441 42.0021H155.379L161.472 24.8203Z" fill="white"/>
<path fill-rule="evenodd" clip-rule="evenodd" d="M0 0H19.2953L40.6218 20.0455V24.8182C40.6218 34.3074 32.4376 42 22.342 42H0V0ZM19.8447 10.5H11.171V31.5H22.342C26.2681 31.5 29.4508 28.5085 29.4508 24.8182V19.6171L19.8447 10.5ZM64.9948 0H25.3886L36.5596 10.5H47.7306V42H58.9016V10.5H76.1658L64.9948 0ZM93.4301 0H101.728C101.728 -0.000155361 101.728 0.000155364 101.728 0L103.332 0.000466086C113.287 0.000466086 121.358 7.58619 121.358 16.9437C121.358 25.1841 115.099 32.0505 106.806 33.5724L95.9694 23.3868H103.332C107.118 23.3868 110.187 20.5021 110.187 16.9437C110.187 13.3852 107.118 10.5005 103.332 10.5005H93.4301V42H82.2591V10.5L71.0881 0H82.2591H93.4301Z" fill="white"/>
<path d="M19.2969 20.0455V0.742424V0L40.6233 20.0455H19.2969Z" fill="#31CBFF"/>
<path d="M19.2969 20.0455V0.742424V0L40.6233 20.0455H19.2969Z" fill="url(#paint0_linear_42_270)"/>
<path d="M19.2969 20.0455V0.742424V0L40.6233 20.0455H19.2969Z" fill="url(#paint1_linear_42_270)"/>
</g>
<defs>
<linearGradient id="paint0_linear_42_270" x1="19.2969" y1="20.0455" x2="29.7768" y2="8.89587" gradientUnits="userSpaceOnUse">
<stop stop-color="#00C2FF"/>
<stop offset="1" stop-color="#8684FF"/>
</linearGradient>
<linearGradient id="paint1_linear_42_270" x1="30.4679" y1="9.54545" x2="19.988" y2="20.695" gradientUnits="userSpaceOnUse">
<stop stop-color="#FF4930"/>
<stop offset="1" stop-color="#FF3030"/>
</linearGradient>
<clipPath id="clip0_42_270">
<rect width="196" height="42" fill="white"/>
</clipPath>
</defs>
</svg>
