<svg width="158" height="34" viewBox="0 0 158 34" fill="none" xmlns="http://www.w3.org/2000/svg">
<g clip-path="url(#clip0_42_477)">
<path d="M93.7364 34.0028C95.3188 34.0028 96.6017 32.792 96.6017 31.2983C96.6017 29.8046 95.3188 28.5938 93.7364 28.5938C92.1539 28.5938 90.8711 29.8046 90.8711 31.2983C90.8711 32.792 92.1539 34.0028 93.7364 34.0028Z" fill="#0D1E38"/>
<path d="M99.0547 20.0938H112.153V23.1847H107.241V34.0028H103.967V23.1847H99.0547V20.0938Z" fill="#0D1E38"/>
<path d="M124.435 20.0938V23.1847H117.068V25.5028H120.888L121.979 28.5938H117.068V30.9119H124.435V34.0028H113.793V20.0938H124.435Z" fill="#0D1E38"/>
<path d="M140.809 20.0938H145.721L149.404 30.5256L153.088 20.0938H158V34.0028H154.726V24.7301L151.451 34.0028H147.358L144.083 24.7301V34.0028H140.809V20.0938Z" fill="#0D1E38"/>
<path d="M130.166 20.0938H135.078L139.99 34.0028H136.715L134.532 27.821L132.622 22.4119L130.712 27.821H134.532L133.44 30.9119H129.62L128.529 34.0028H125.254L130.166 20.0938Z" fill="#0D1E38"/>
<path fill-rule="evenodd" clip-rule="evenodd" d="M0 0H15.5544L32.7461 16.2273V20.0909C32.7461 27.7727 26.1487 34 18.0104 34H0V0ZM15.9973 8.5H9.00518V25.5H18.0104C21.1753 25.5 23.7409 23.0783 23.7409 20.0909V15.8805L15.9973 8.5ZM52.3938 0H20.4663L29.4715 8.5H38.4767V34H47.4819V8.5H61.399L52.3938 0ZM75.3161 0H82.0053C82.0053 -0.000125768 82.0053 0.000125771 82.0053 0L83.2979 0.000377308C91.3232 0.000377308 97.829 6.1412 97.829 13.7163C97.829 20.3871 92.7837 25.9456 86.0985 27.1777L77.3631 18.9322H83.2979C86.3499 18.9322 88.8238 16.5969 88.8238 13.7163C88.8238 10.8356 86.3499 8.50039 83.2979 8.50039H75.3161V34H66.3109V8.5L57.3057 0H66.3109H75.3161Z" fill="#0D1E38"/>
<path d="M15.5547 16.2273V0.60101V0L32.7464 16.2273H15.5547Z" fill="#31CBFF"/>
<path d="M15.5547 16.2273V0.60101V0L32.7464 16.2273H15.5547Z" fill="url(#paint0_linear_42_477)"/>
<path d="M15.5547 16.2273V0.60101V0L32.7464 16.2273H15.5547Z" fill="url(#paint1_linear_42_477)"/>
</g>
<defs>
<linearGradient id="paint0_linear_42_477" x1="15.5547" y1="16.2273" x2="24.0405" y2="7.23708" gradientUnits="userSpaceOnUse">
<stop stop-color="#00C2FF"/>
<stop offset="1" stop-color="#8684FF"/>
</linearGradient>
<linearGradient id="paint1_linear_42_477" x1="24.5599" y1="7.72727" x2="16.074" y2="16.7175" gradientUnits="userSpaceOnUse">
<stop stop-color="#FF4930"/>
<stop offset="1" stop-color="#FF3030"/>
</linearGradient>
<clipPath id="clip0_42_477">
<rect width="158" height="34" fill="white"/>
</clipPath>
</defs>
</svg>
