<?xml version="1.0" encoding="utf-8"?><svg viewBox="0 0 196 42" xmlns="http://www.w3.org/2000/svg" xmlns:xlink="http://www.w3.org/1999/xlink"><style>:root>svg{display:none}:root>svg:target{display:block}</style><svg viewBox="0 0 196 42" id="logo-footer" xmlns="http://www.w3.org/2000/svg"><g clip-path="url(#aa)"><path d="M116.281 42.002c1.963 0 3.554-1.496 3.554-3.34 0-1.846-1.591-3.342-3.554-3.342-1.963 0-3.554 1.496-3.554 3.341 0 1.845 1.591 3.341 3.554 3.341zm6.602-17.182h16.249v3.819h-6.094v13.363h-4.062V28.638h-6.093V24.82zm31.479 0v3.819h-9.14v2.863h4.74l1.354 3.818h-6.094v2.864h9.14v3.818H141.16V24.82h13.202zm20.31 0h6.093l4.57 12.887 4.57-12.887h6.093v17.182h-4.062V30.548l-4.062 11.454h-5.078l-4.062-11.454v11.454h-4.062V24.82zm-13.2 0h6.093l6.094 17.182h-4.062l-2.709-7.636-2.369-6.682-2.369 6.682h4.738l-1.354 3.818h-4.739l-1.354 3.818h-4.062l6.093-17.182z"/><path fill-rule="evenodd" clip-rule="evenodd" d="M0 0h19.295l21.327 20.046v4.772c0 9.49-8.184 17.182-18.28 17.182H0V0zm19.845 10.5H11.17v21h11.171c3.926 0 7.109-2.991 7.109-6.682v-5.2L19.845 10.5zM64.995 0H25.389l11.17 10.5h11.172V42H58.9V10.5h17.265L64.995 0zM93.43 0h9.902c9.955 0 18.026 7.586 18.026 16.944 0 8.24-6.259 15.107-14.552 16.628L95.969 23.387h7.363c3.786 0 6.855-2.885 6.855-6.443 0-3.559-3.069-6.443-6.855-6.443H93.43V42H82.26V10.5L71.087 0H93.43z"/><path d="M19.297 20.046V0l21.326 20.046H19.297z"/><path d="M19.297 20.046V0l21.326 20.046H19.297z"/><path d="M19.297 20.046V0l21.326 20.046H19.297z"/></g><defs><linearGradient id="ab" x1="19.297" y1="20.046" x2="29.777" y2="8.896" gradientUnits="userSpaceOnUse"><stop stop-color="#00C2FF"/><stop offset="1" stop-color="#8684FF"/></linearGradient><linearGradient id="ac" x1="30.468" y1="9.545" x2="19.988" y2="20.695" gradientUnits="userSpaceOnUse"><stop stop-color="#FF4930"/><stop offset="1" stop-color="#FF3030"/></linearGradient><clipPath id="aa"><path d="M0 0h196v42H0z"/></clipPath></defs></svg><svg viewBox="0 0 158 34" id="logo-header" xmlns="http://www.w3.org/2000/svg"><g clip-path="url(#ba)"><path d="M93.736 34.003c1.583 0 2.866-1.211 2.866-2.705 0-1.493-1.283-2.704-2.866-2.704-1.582 0-2.865 1.21-2.865 2.704 0 1.494 1.283 2.705 2.865 2.705zm5.319-13.909h13.098v3.09h-4.912v10.819h-3.274V23.185h-4.912v-3.091zm25.38 0v3.09h-7.367v2.319h3.82l1.091 3.09h-4.911v2.319h7.367v3.09h-10.642V20.095h10.642zm16.374 0h4.912l3.683 10.432 3.684-10.432H158v13.909h-3.274V24.73l-3.275 9.273h-4.093l-3.275-9.273v9.273h-3.274v-13.91zm-10.643 0h4.912l4.912 13.909h-3.275l-2.183-6.182-1.91-5.41-1.91 5.41h3.82l-1.092 3.09h-3.82l-1.091 3.092h-3.275l4.912-13.91z"/><path fill-rule="evenodd" clip-rule="evenodd" d="M0 0h15.554l17.192 16.227v3.864C32.746 27.773 26.15 34 18.01 34H0V0zm15.997 8.5H9.005v17h9.005c3.165 0 5.73-2.422 5.73-5.41v-4.21L15.998 8.5zM52.394 0H20.466l9.005 8.5h9.006V34h9.005V8.5h13.917L52.394 0zm22.922 0h7.982c8.025 0 14.531 6.141 14.531 13.716 0 6.671-5.045 12.23-11.73 13.462l-8.736-8.246h5.935c3.052 0 5.526-2.335 5.526-5.216 0-2.88-2.474-5.216-5.526-5.216h-7.982V34h-9.005V8.5L57.306 0h18.01z"/><path d="M15.555 16.227V0l17.191 16.227H15.555z"/><path d="M15.555 16.227V0l17.191 16.227H15.555z"/><path d="M15.555 16.227V0l17.191 16.227H15.555z"/></g><defs><linearGradient id="bb" x1="15.555" y1="16.227" x2="24.041" y2="7.237" gradientUnits="userSpaceOnUse"><stop stop-color="#00C2FF"/><stop offset="1" stop-color="#8684FF"/></linearGradient><linearGradient id="bc" x1="24.56" y1="7.727" x2="16.074" y2="16.718" gradientUnits="userSpaceOnUse"><stop stop-color="#FF4930"/><stop offset="1" stop-color="#FF3030"/></linearGradient><clipPath id="ba"><path d="M0 0h158v34H0z"/></clipPath></defs></svg></svg>